<?xml version="1.0" encoding="UTF-8"?>
<!--Generator: Apple Native CoreSVG 326-->
<!DOCTYPE svg
PUBLIC "-//W3C//DTD SVG 1.1//EN"
       "http://www.w3.org/Graphics/SVG/1.1/DTD/svg11.dtd">
<svg version="1.1" xmlns="http://www.w3.org/2000/svg" xmlns:xlink="http://www.w3.org/1999/xlink" viewBox="0 0 38.5 43.248">
 <g>
  <rect height="43.248" opacity="0" width="38.5" x="0" y="0"/>
  <path d="M6.74609 43.2266L32.0332 43.2266C35.8789 43.2266 38.1348 40.9922 38.1348 36.5664L38.1348 14.3301C38.1348 9.9043 35.8574 7.66992 31.3887 7.66992L6.74609 7.66992C2.25586 7.66992 0 9.88281 0 14.3301L0 36.5664C0 41.0137 2.25586 43.2266 6.74609 43.2266ZM6.78906 39.7676C4.64062 39.7676 3.45898 38.6289 3.45898 36.3945L3.45898 14.502C3.45898 12.2676 4.64062 11.1289 6.78906 11.1289L31.3242 11.1289C33.4512 11.1289 34.6758 12.2676 34.6758 14.502L34.6758 36.3945C34.6758 38.6289 33.4512 39.7676 31.9688 39.7676ZM10.5918 8.50781L14.0508 8.5293C14.0508 5.45703 16.0703 3.26562 19.0566 3.26562C22.043 3.26562 24.084 5.45703 24.084 8.5293L27.543 8.50781C27.543 3.75977 23.8691 0 19.0566 0C14.2441 0 10.5918 3.75977 10.5918 8.50781Z" fill="white" fill-opacity="0.85"/>
 </g>
</svg>
