<?xml version="1.0" encoding="UTF-8"?>
<!--Generator: Apple Native CoreSVG 326-->
<!DOCTYPE svg
PUBLIC "-//W3C//DTD SVG 1.1//EN"
       "http://www.w3.org/Graphics/SVG/1.1/DTD/svg11.dtd">
<svg version="1.1" xmlns="http://www.w3.org/2000/svg" xmlns:xlink="http://www.w3.org/1999/xlink" viewBox="0 0 50.6816 47.9764">
 <g>
  <rect height="47.9764" opacity="0" width="50.6816" x="0" y="0"/>
  <path d="M0 19.165C0 21.206 1.24609 22.4521 3.28711 22.4521L47.0078 22.4521C49.0488 22.4521 50.3164 21.206 50.3164 19.165L50.3164 18.1122C50.3164 16.0927 49.0488 14.8036 47.0078 14.8036L3.28711 14.8036C1.24609 14.8036 0 16.0927 0 18.1122ZM13.6641 46.0419L36.6523 46.0419C41.6152 46.0419 43.1621 43.1415 43.7852 40.0263L46.7715 25.3954L3.56641 25.3954L6.53125 40.0263C7.1543 43.1415 8.70117 46.0419 13.6641 46.0419ZM15.0605 42.3466C14.2441 42.4755 13.6426 42.0458 13.5137 41.3153L11.666 30.5087C11.5371 29.7782 12.0098 29.1982 12.8262 29.0478C13.6426 28.9403 14.2656 29.3485 14.3945 30.079L16.2207 40.8857C16.3281 41.6161 15.8984 42.1962 15.0605 42.3466ZM21.8711 42.3251C21.0547 42.3681 20.4531 41.8739 20.4102 41.122L19.7012 30.4443C19.6582 29.6923 20.1953 29.1552 20.9902 29.0907C21.8281 29.0263 22.3867 29.5419 22.4512 30.2939L23.1602 40.9716C23.2031 41.7235 22.666 42.2821 21.8711 42.3251ZM28.4883 42.3251C27.6719 42.2821 27.1348 41.7235 27.1777 40.9716L27.8867 30.2939C27.9512 29.5419 28.5098 29.0263 29.3477 29.0907C30.1426 29.1552 30.6797 29.6923 30.6367 30.4443L29.9277 41.122C29.8848 41.8739 29.2832 42.3681 28.4883 42.3251ZM35.2559 42.3466C34.418 42.1962 33.9883 41.6161 34.0957 40.8857L35.9219 30.079C36.0508 29.3485 36.6738 28.9403 37.4902 29.0478C38.3066 29.1982 38.7793 29.8212 38.6504 30.5517L36.8027 41.3153C36.6738 42.0458 36.0508 42.4755 35.2559 42.3466ZM6.91797 15.7275L11.2148 15.7275L18.7773 2.6005C19.3574 1.56925 18.8848 0.666908 18.0898 0.237221C17.3164-0.170982 16.2852-0.106529 15.7051 0.860268ZM39.1016 15.7275L43.3984 15.7275L34.6113 0.860268C34.0527-0.0850449 33.0215-0.149498 32.2266 0.237221C31.4531 0.666908 30.959 1.56925 31.5391 2.6005Z" fill="white" fill-opacity="0.85"/>
 </g>
</svg>
