<?xml version="1.0" encoding="UTF-8"?>
<!--Generator: Apple Native CoreSVG 326-->
<!DOCTYPE svg
PUBLIC "-//W3C//DTD SVG 1.1//EN"
       "http://www.w3.org/Graphics/SVG/1.1/DTD/svg11.dtd">
<svg version="1.1" xmlns="http://www.w3.org/2000/svg" xmlns:xlink="http://www.w3.org/1999/xlink" viewBox="0 0 51.0469 45.2676">
 <g>
  <rect height="45.2676" opacity="0" width="51.0469" x="0" y="0"/>
  <path d="M0 4.64062C0 5.52148 0.730469 6.27344 1.58984 6.27344L8.85156 6.27344L12.2891 29.8633C12.7402 32.9141 14.3516 34.8262 17.4668 34.8262L42.5391 34.8262C43.377 34.8262 44.1074 34.1387 44.1074 33.2148C44.1074 32.291 43.377 31.6035 42.5391 31.6035L17.832 31.6035C16.6074 31.6035 15.8555 30.7441 15.6621 29.4336L15.3184 27.1777L42.582 27.1777C45.7188 27.1777 47.3301 25.2441 47.7812 22.1719L49.5 10.8066C49.543 10.5273 49.5859 10.1836 49.5859 9.99023C49.5859 8.95898 48.8125 8.25 47.6309 8.25L12.5684 8.25L12.1387 5.52148C11.9238 3.86719 11.3223 3.0293 9.13086 3.0293L1.58984 3.0293C0.730469 3.0293 0 3.78125 0 4.64062ZM15.6621 41.7871C15.6621 43.7422 17.209 45.2676 19.1641 45.2676C21.0977 45.2676 22.6445 43.7422 22.6445 41.7871C22.6445 39.8535 21.0977 38.3066 19.1641 38.3066C17.209 38.3066 15.6621 39.8535 15.6621 41.7871ZM35.75 41.7871C35.75 43.7422 37.3184 45.2676 39.252 45.2676C41.207 45.2676 42.7539 43.7422 42.7539 41.7871C42.7539 39.8535 41.207 38.3066 39.252 38.3066C37.3184 38.3066 35.75 39.8535 35.75 41.7871Z" fill="white" fill-opacity="0.85"/>
 </g>
</svg>
