<?xml version="1.0" encoding="UTF-8"?>
<!--Generator: Apple Native CoreSVG 326-->
<!DOCTYPE svg
PUBLIC "-//W3C//DTD SVG 1.1//EN"
       "http://www.w3.org/Graphics/SVG/1.1/DTD/svg11.dtd">
<svg version="1.1" xmlns="http://www.w3.org/2000/svg" xmlns:xlink="http://www.w3.org/1999/xlink" viewBox="0 0 44.1934 43.8496">
 <g>
  <rect height="43.8496" opacity="0" width="44.1934" x="0" y="0"/>
  <path d="M43.8281 21.9141C43.8281 33.9883 34.0098 43.8281 21.9141 43.8281C9.83984 43.8281 0 33.9883 0 21.9141C0 9.81836 9.83984 0 21.9141 0C34.0098 0 43.8281 9.81836 43.8281 21.9141ZM9.30273 19.5293L9.30273 27.7578C9.30273 29.9922 10.4414 31.0879 12.6543 31.0879L31.1738 31.0879C33.3867 31.0879 34.5254 29.9922 34.5254 27.7578L34.5254 19.5293ZM17.3809 24.75L17.3809 26.748C17.3809 27.3496 16.9512 27.7578 16.3281 27.7578L13.6855 27.7578C13.084 27.7578 12.6543 27.3496 12.6543 26.748L12.6543 24.75C12.6543 24.1484 13.084 23.7402 13.6855 23.7402L16.3281 23.7402C16.9512 23.7402 17.3809 24.1484 17.3809 24.75ZM12.6543 12.7832C10.4414 12.7832 9.30273 13.8574 9.30273 16.0918L9.30273 17.0801L34.5254 17.0801L34.5254 16.0918C34.5254 13.8789 33.3867 12.7832 31.1738 12.7832Z" fill="white" fill-opacity="0.85"/>
 </g>
</svg>
