<?xml version="1.0" encoding="UTF-8"?>
<!--Generator: Apple Native CoreSVG 326-->
<!DOCTYPE svg
PUBLIC "-//W3C//DTD SVG 1.1//EN"
       "http://www.w3.org/Graphics/SVG/1.1/DTD/svg11.dtd">
<svg version="1.1" xmlns="http://www.w3.org/2000/svg" xmlns:xlink="http://www.w3.org/1999/xlink" viewBox="0 0 42.4316 42.0879">
 <g>
  <rect height="42.0879" opacity="0" width="42.4316" x="0" y="0"/>
  <path d="M1.71875 13.707C2.85742 13.707 3.45898 13.0625 3.45898 11.9453L3.45898 6.875C3.45898 4.64062 4.64062 3.50195 6.78906 3.50195L11.9883 3.50195C13.127 3.50195 13.75 2.87891 13.75 1.76172C13.75 0.644531 13.127 0.0429688 11.9883 0.0429688L6.74609 0.0429688C2.25586 0.0429688 0 2.25586 0 6.68164L0 11.9453C0 13.0625 0.623047 13.707 1.71875 13.707ZM40.3262 13.707C41.4648 13.707 42.0664 13.0625 42.0664 11.9453L42.0664 6.68164C42.0664 2.25586 39.8105 0.0429688 35.3203 0.0429688L30.0566 0.0429688C28.9395 0.0429688 28.3164 0.644531 28.3164 1.76172C28.3164 2.87891 28.9395 3.50195 30.0566 3.50195L35.2559 3.50195C37.3828 3.50195 38.6074 4.64062 38.6074 6.875L38.6074 11.9453C38.6074 13.0625 39.2305 13.707 40.3262 13.707ZM6.74609 42.0879L11.9883 42.0879C13.127 42.0879 13.75 41.4648 13.75 40.3691C13.75 39.252 13.127 38.6289 11.9883 38.6289L6.78906 38.6289C4.64062 38.6289 3.45898 37.4902 3.45898 35.2559L3.45898 30.1855C3.45898 29.0469 2.83594 28.4238 1.71875 28.4238C0.601562 28.4238 0 29.0469 0 30.1855L0 35.4277C0 39.875 2.25586 42.0879 6.74609 42.0879ZM30.0566 42.0879L35.3203 42.0879C39.8105 42.0879 42.0664 39.8535 42.0664 35.4277L42.0664 30.1855C42.0664 29.0469 41.4434 28.4238 40.3262 28.4238C39.209 28.4238 38.6074 29.0469 38.6074 30.1855L38.6074 35.2559C38.6074 37.4902 37.3828 38.6289 35.2559 38.6289L30.0566 38.6289C28.9395 38.6289 28.3164 39.252 28.3164 40.3691C28.3164 41.4648 28.9395 42.0879 30.0566 42.0879Z" fill="white" fill-opacity="0.85"/>
  <path d="M12.0742 29.9707L30.0137 29.9707C32.1836 29.9707 33.2793 28.8965 33.2793 26.748L33.2793 18.7559L8.80859 18.7559L8.80859 26.748C8.80859 28.8965 9.9043 29.9707 12.0742 29.9707ZM13.084 26.748C12.4824 26.748 12.0742 26.3398 12.0742 25.7383L12.0742 23.8262C12.0742 23.2246 12.4824 22.8164 13.084 22.8164L15.6191 22.8164C16.2207 22.8164 16.6504 23.2246 16.6504 23.8262L16.6504 25.7383C16.6504 26.3398 16.2207 26.748 15.6191 26.748ZM8.80859 16.3711L33.2793 16.3711L33.2793 15.4258C33.2793 13.2773 32.1836 12.2031 30.0137 12.2031L12.0742 12.2031C9.9043 12.2031 8.80859 13.2773 8.80859 15.4258Z" fill="white" fill-opacity="0.85"/>
 </g>
</svg>
