<?xml version="1.0" encoding="UTF-8"?>
<!--Generator: Apple Native CoreSVG 326-->
<!DOCTYPE svg
PUBLIC "-//W3C//DTD SVG 1.1//EN"
       "http://www.w3.org/Graphics/SVG/1.1/DTD/svg11.dtd">
<svg version="1.1" xmlns="http://www.w3.org/2000/svg" xmlns:xlink="http://www.w3.org/1999/xlink" viewBox="0 0 63.8945 46.8145">
 <g>
  <rect height="46.8145" opacity="0" width="63.8945" x="0" y="0"/>
  <path d="M56.998 11.7305L56.998 25.6898C56.457 25.5948 55.89 25.5449 55.3008 25.5449C54.6882 25.5449 54.0995 25.5991 53.5391 25.7027L53.5391 18.498L9.96875 18.498L9.96875 34.9336C9.96875 37.168 11.1719 38.3066 13.3203 38.3066L30.7227 38.3066L30.7227 41.7656L13.2559 41.7656C8.78711 41.7656 6.50977 39.5527 6.50977 35.127L6.50977 11.7305C6.50977 7.30469 8.78711 5.07031 13.2559 5.07031L50.252 5.07031C54.7637 5.07031 56.998 7.30469 56.998 11.7305ZM13.3203 8.5293C11.1719 8.5293 9.96875 9.68945 9.96875 11.9238L9.96875 13.6211L53.5391 13.6211L53.5391 11.9238C53.5391 9.68945 52.3359 8.5293 50.209 8.5293Z" fill="white" fill-opacity="0.85"/>
  <path d="M55.3223 43.8926C58.5664 43.8926 60.9512 41.9375 60.9512 39.2734C60.9512 37.2324 59.5332 35.6641 57.5781 35.4707L57.5781 36.2227C59.3184 35.707 60.3496 34.3535 60.3496 32.6133C60.3496 30.207 58.2227 28.4668 55.3008 28.4668C53.0879 28.4668 51.2617 29.4766 50.5098 31.0879C50.3164 31.4961 50.209 31.9473 50.209 32.377C50.209 33.1289 50.7246 33.6445 51.4766 33.6445C52.1426 33.6445 52.5293 33.3438 52.7227 32.6992C53.0879 31.625 53.9473 31.0234 55.2363 31.0234C56.6973 31.0234 57.5781 31.7324 57.5781 32.8496C57.5781 34.0098 56.6328 34.7402 55.1504 34.7402L54.0762 34.7402C53.3457 34.7402 52.8301 35.2773 52.8301 35.9863C52.8301 36.6953 53.3457 37.2109 54.0762 37.2109L55.1719 37.2109C57.0625 37.2109 58.0938 37.9414 58.0938 39.2734C58.0938 40.498 56.998 41.3145 55.3438 41.3145C53.8613 41.3145 52.8301 40.6914 52.4863 39.6387C52.293 38.9941 51.8633 38.6934 51.2188 38.6934C50.4453 38.6934 49.8867 39.2305 49.8867 40.0039C49.8867 40.4121 49.9941 40.8633 50.209 41.25C51.1113 42.9258 52.9375 43.8926 55.3223 43.8926Z" fill="white" fill-opacity="0.85"/>
  <path d="M39.7031 43.6777L47.7812 43.6777C48.5332 43.6777 49.0918 43.1406 49.0918 42.4102C49.0918 41.6367 48.5332 41.0781 47.7812 41.0781L42.668 41.0781L42.668 40.9707L45.4824 38.1777C47.8672 35.8359 48.6191 34.5469 48.6191 32.9141C48.6191 30.3789 46.4277 28.4668 43.4844 28.4668C41.1855 28.4668 39.2305 29.7773 38.5859 31.668C38.4785 31.9902 38.3926 32.3125 38.3926 32.6777C38.3926 33.4512 38.9297 33.9668 39.6602 33.9668C40.3262 33.9668 40.7344 33.6445 40.9277 32.9141C40.9707 32.7422 41.0137 32.5918 41.0781 32.4414C41.5078 31.5391 42.3887 31.0234 43.4844 31.0234C44.7734 31.0234 45.8262 31.9473 45.8262 33.0215C45.8262 33.9883 45.3965 34.6543 43.5703 36.459L39.0156 40.9922C38.5215 41.4648 38.3281 41.873 38.3281 42.3672C38.3281 43.1406 38.8867 43.6777 39.7031 43.6777Z" fill="white" fill-opacity="0.85"/>
  <path d="M35.0195 43.8711C35.8789 43.8711 36.4375 43.3125 36.4375 42.4746L36.4375 30.0352C36.4375 29.1543 35.8359 28.5527 34.9121 28.5527C34.4395 28.5527 34.0957 28.6816 33.5586 29.0469L30.3145 31.1523C29.7988 31.4746 29.5625 31.8828 29.5625 32.377C29.5625 33.0645 30.0996 33.5586 30.8086 33.5586C31.0879 33.5586 31.3457 33.4727 31.625 33.2793L33.5371 32.0762L33.666 32.0762L33.666 42.4746C33.666 43.3125 34.2246 43.8711 35.0195 43.8711Z" fill="white" fill-opacity="0.85"/>
 </g>
</svg>
