<?xml version="1.0" encoding="UTF-8"?>
<!--Generator: Apple Native CoreSVG 326-->
<!DOCTYPE svg
PUBLIC "-//W3C//DTD SVG 1.1//EN"
       "http://www.w3.org/Graphics/SVG/1.1/DTD/svg11.dtd">
<svg version="1.1" xmlns="http://www.w3.org/2000/svg" xmlns:xlink="http://www.w3.org/1999/xlink" viewBox="0 0 50.8535 36.7168">
 <g>
  <rect height="36.7168" opacity="0" width="50.8535" x="0" y="0"/>
  <path d="M8.78711 30.0566C7.51953 30.0566 6.68164 29.1973 6.68164 27.9941L6.68164 24.0195C6.68164 22.7949 7.51953 21.957 8.78711 21.957L14.0508 21.957C15.3184 21.957 16.1562 22.7949 16.1562 24.0195L16.1562 27.9941C16.1562 29.1973 15.3184 30.0566 14.0508 30.0566ZM0 13.5566L0 8.67969L50.4883 8.67969L50.4883 13.5566ZM6.74609 36.7168L43.7422 36.7168C48.2539 36.7168 50.4883 34.5039 50.4883 30.0781L50.4883 6.68164C50.4883 2.25586 48.2539 0.0214844 43.7422 0.0214844L6.74609 0.0214844C2.25586 0.0214844 0 2.25586 0 6.68164L0 30.0781C0 34.5039 2.25586 36.7168 6.74609 36.7168Z" fill="white" fill-opacity="0.85"/>
 </g>
</svg>
