<?xml version="1.0" encoding="UTF-8"?>
<!--Generator: Apple Native CoreSVG 326-->
<!DOCTYPE svg
PUBLIC "-//W3C//DTD SVG 1.1//EN"
       "http://www.w3.org/Graphics/SVG/1.1/DTD/svg11.dtd">
<svg version="1.1" xmlns="http://www.w3.org/2000/svg" xmlns:xlink="http://www.w3.org/1999/xlink" viewBox="0 0 44.1934 43.8496">
 <g>
  <rect height="43.8496" opacity="0" width="44.1934" x="0" y="0"/>
  <path d="M21.9141 43.8281C34.0098 43.8281 43.8281 34.0098 43.8281 21.9141C43.8281 9.81836 34.0098 0 21.9141 0C9.81836 0 0 9.81836 0 21.9141C0 34.0098 9.81836 43.8281 21.9141 43.8281ZM21.9141 40.1758C11.8164 40.1758 3.65234 32.0117 3.65234 21.9141C3.65234 11.8164 11.8164 3.65234 21.9141 3.65234C32.0117 3.65234 40.1758 11.8164 40.1758 21.9141C40.1758 32.0117 32.0117 40.1758 21.9141 40.1758Z" fill="white" fill-opacity="0.85"/>
  <path d="M12.9121 30.8086L30.873 30.8086C33.0215 30.8086 34.1172 29.7344 34.1172 27.5859L34.1172 19.5938L9.66797 19.5938L9.66797 27.5859C9.66797 29.7344 10.7637 30.8086 12.9121 30.8086ZM13.9219 27.5859C13.3203 27.5859 12.9121 27.1777 12.9121 26.5977L12.9121 24.6641C12.9121 24.084 13.3203 23.6758 13.9219 23.6758L16.4785 23.6758C17.0801 23.6758 17.4883 24.084 17.4883 24.6641L17.4883 26.5977C17.4883 27.1777 17.0801 27.5859 16.4785 27.5859ZM9.66797 17.2305L34.1172 17.2305L34.1172 16.2637C34.1172 14.1367 33.0215 13.0625 30.873 13.0625L12.9121 13.0625C10.7637 13.0625 9.66797 14.1152 9.66797 16.2637Z" fill="white" fill-opacity="0.85"/>
 </g>
</svg>
