<?xml version="1.0" encoding="UTF-8"?>
<!--Generator: Apple Native CoreSVG 326-->
<!DOCTYPE svg
PUBLIC "-//W3C//DTD SVG 1.1//EN"
       "http://www.w3.org/Graphics/SVG/1.1/DTD/svg11.dtd">
<svg version="1.1" xmlns="http://www.w3.org/2000/svg" xmlns:xlink="http://www.w3.org/1999/xlink" viewBox="0 0 50.8535 36.7168">
 <g>
  <rect height="36.7168" opacity="0" width="50.8535" x="0" y="0"/>
  <path d="M9.64648 29.1973L14.9102 29.1973C16.1777 29.1973 17.0156 28.3379 17.0156 27.1348L17.0156 23.1602C17.0156 21.9355 16.1777 21.0977 14.9102 21.0977L9.64648 21.0977C8.37891 21.0977 7.54102 21.9355 7.54102 23.1602L7.54102 27.1348C7.54102 28.3379 8.37891 29.1973 9.64648 29.1973ZM1.74023 13.4492L48.7695 13.4492L48.7695 8.57227L1.74023 8.57227ZM6.74609 36.7168L43.7422 36.7168C48.2539 36.7168 50.4883 34.5039 50.4883 30.0781L50.4883 6.68164C50.4883 2.25586 48.2539 0.0214844 43.7422 0.0214844L6.74609 0.0214844C2.25586 0.0214844 0 2.25586 0 6.68164L0 30.0781C0 34.5039 2.25586 36.7168 6.74609 36.7168ZM6.78906 33.2578C4.64062 33.2578 3.45898 32.1191 3.45898 29.8848L3.45898 6.875C3.45898 4.64062 4.64062 3.48047 6.78906 3.48047L43.6992 3.48047C45.8047 3.48047 47.0293 4.64062 47.0293 6.875L47.0293 29.8848C47.0293 32.1191 45.8047 33.2578 43.6992 33.2578Z" fill="white" fill-opacity="0.85"/>
 </g>
</svg>
