<?xml version="1.0" encoding="UTF-8"?>
<!--Generator: Apple Native CoreSVG 326-->
<!DOCTYPE svg
PUBLIC "-//W3C//DTD SVG 1.1//EN"
       "http://www.w3.org/Graphics/SVG/1.1/DTD/svg11.dtd">
<svg version="1.1" xmlns="http://www.w3.org/2000/svg" xmlns:xlink="http://www.w3.org/1999/xlink" viewBox="0 0 50.8535 36.7168">
 <g>
  <rect height="36.7168" opacity="0" width="50.8535" x="0" y="0"/>
  <path d="M1.31055 18.0039L1.31055 20.3672L21.8711 20.3672C20.6035 22.9883 16.4785 26.8555 13.4922 27.1777C12.3965 27.2852 11.7734 27.9727 11.7734 29.0039C11.7734 29.9492 12.5254 30.8301 13.75 30.6582C17.0586 30.1426 22.3652 26.2969 23.7832 21.8711L23.9336 21.8711L23.9336 36.2441L26.5332 36.2441L26.5332 21.8711L26.7051 21.8711C28.123 26.2969 33.4297 30.1426 36.7383 30.6582C37.9629 30.8301 38.7148 29.9492 38.7148 29.0039C38.7148 27.9727 38.0918 27.2852 36.9746 27.1777C34.0098 26.8555 29.8633 22.9883 28.6172 20.3672L48.9629 20.3672L48.9629 18.0039L33.8379 18.0039C36.5664 16.7793 38.457 14.5449 38.457 11.8379C38.457 8.70117 36.1582 6.40234 33.0645 6.40234C30.3789 6.40234 27.9512 8.09961 26.5332 10.8496L26.5332 0.386719L23.9336 0.386719L23.9336 10.8496C22.5371 8.09961 20.1094 6.40234 17.4023 6.40234C14.3301 6.40234 12.0098 8.70117 12.0098 11.8379C12.0098 14.5449 13.9219 16.7793 16.6289 18.0039ZM22.9023 17.6816C18.6699 17.6816 15.0391 14.7812 15.0391 12.0742C15.0391 10.4414 16.0273 9.45312 17.5742 9.45312C20.7539 9.45312 23.5469 12.998 23.5469 17.0801L23.5469 17.6816ZM27.5645 17.6816L26.9199 17.6816L26.9199 17.0801C26.9199 12.998 29.7129 9.45312 32.8926 9.45312C34.4609 9.45312 35.4277 10.4414 35.4277 12.0742C35.4277 14.7812 31.8184 17.6816 27.5645 17.6816ZM6.74609 36.7168L43.7422 36.7168C48.2539 36.7168 50.4883 34.5039 50.4883 30.0781L50.4883 6.68164C50.4883 2.25586 48.2539 0.0214844 43.7422 0.0214844L6.74609 0.0214844C2.25586 0.0214844 0 2.25586 0 6.68164L0 30.0781C0 34.5039 2.25586 36.7168 6.74609 36.7168ZM6.78906 33.2578C4.64062 33.2578 3.45898 32.1191 3.45898 29.8848L3.45898 6.875C3.45898 4.64062 4.64062 3.48047 6.78906 3.48047L43.6992 3.48047C45.8047 3.48047 47.0293 4.64062 47.0293 6.875L47.0293 29.8848C47.0293 32.1191 45.8047 33.2578 43.6992 33.2578Z" fill="white" fill-opacity="0.85"/>
 </g>
</svg>
