<?xml version="1.0" encoding="UTF-8"?>
<!--Generator: Apple Native CoreSVG 326-->
<!DOCTYPE svg
PUBLIC "-//W3C//DTD SVG 1.1//EN"
       "http://www.w3.org/Graphics/SVG/1.1/DTD/svg11.dtd">
<svg version="1.1" xmlns="http://www.w3.org/2000/svg" xmlns:xlink="http://www.w3.org/1999/xlink" viewBox="0 0 50.8535 36.7168">
 <g>
  <rect height="36.7168" opacity="0" width="50.8535" x="0" y="0"/>
  <path d="M0 18.0898L16.0488 18.0898C13.1699 16.8008 11.1719 14.416 11.1719 11.5371C11.1719 8.20703 13.6426 5.73633 16.9297 5.73633C19.8086 5.73633 22.3652 7.51953 23.8477 10.4414L23.8477 0.0214844L26.6621 0.0214844L26.6621 10.4414C28.166 7.51953 30.7227 5.73633 33.5801 5.73633C36.8887 5.73633 39.3379 8.20703 39.3379 11.5371C39.3379 14.416 37.3613 16.8008 34.4609 18.0898L50.4883 18.0898L50.4883 20.6465L28.8965 20.6465C30.207 23.375 34.5898 27.5 37.748 27.8223C38.9512 27.9297 39.6172 28.6602 39.6172 29.7988C39.6172 30.8086 38.8008 31.7539 37.4902 31.582C33.9668 31.0664 28.3164 26.9199 26.834 22.2363L26.6621 22.2363L26.6621 36.7168L23.8477 36.7168L23.8477 22.2363L23.6973 22.2363C22.2148 26.9199 16.5645 31.0664 13.041 31.582C11.7305 31.7539 10.9141 30.8086 10.9141 29.7988C10.9141 28.6602 11.5801 27.9512 12.7617 27.8223C15.9414 27.457 20.3027 23.375 21.6348 20.6465L0 20.6465ZM22.752 17.7461L23.4395 17.7461L23.4395 17.1016C23.4395 12.7832 20.4961 9.02344 17.1016 9.02344C15.4688 9.02344 14.416 10.0762 14.416 11.7949C14.416 14.6738 18.2617 17.7461 22.752 17.7461ZM27.7578 17.7461C32.2695 17.7461 36.0938 14.6738 36.0938 11.7949C36.0938 10.0762 35.0625 9.02344 33.4082 9.02344C30.0137 9.02344 27.0703 12.7832 27.0703 17.1016L27.0703 17.7461ZM6.74609 36.7168L43.7422 36.7168C48.2539 36.7168 50.4883 34.5039 50.4883 30.0781L50.4883 6.68164C50.4883 2.25586 48.2539 0.0214844 43.7422 0.0214844L6.74609 0.0214844C2.25586 0.0214844 0 2.25586 0 6.68164L0 30.0781C0 34.5039 2.25586 36.7168 6.74609 36.7168Z" fill="white" fill-opacity="0.85"/>
 </g>
</svg>
