<?xml version="1.0" encoding="UTF-8"?>
<!--Generator: Apple Native CoreSVG 326-->
<!DOCTYPE svg
PUBLIC "-//W3C//DTD SVG 1.1//EN"
       "http://www.w3.org/Graphics/SVG/1.1/DTD/svg11.dtd">
<svg version="1.1" xmlns="http://www.w3.org/2000/svg" xmlns:xlink="http://www.w3.org/1999/xlink" viewBox="0 0 16.5 47.2012">
 <g>
  <rect height="47.2012" opacity="0" width="16.5" x="0" y="0"/>
  <path d="M16.1348 8.09961C16.1348 11.8809 13.5566 15.0605 10.0547 15.9199L10.0547 35.8574C10.0547 42.2168 8.9375 45.6543 8.05664 45.6543C7.19727 45.6543 6.05859 42.1953 6.05859 35.8574L6.05859 15.9199C2.55664 15.0391 0 11.8809 0 8.09961C0 3.65234 3.58789 0 8.05664 0C12.5469 0 16.1348 3.65234 16.1348 8.09961ZM2.98633 5.75781C2.98633 7.26172 4.27539 8.55078 5.75781 8.55078C7.26172 8.55078 8.50781 7.26172 8.50781 5.75781C8.50781 4.27539 7.26172 3.00781 5.75781 3.00781C4.27539 3.00781 2.98633 4.27539 2.98633 5.75781Z" fill="white" fill-opacity="0.85"/>
 </g>
</svg>
