<?xml version="1.0" encoding="UTF-8"?>
<!--Generator: Apple Native CoreSVG 326-->
<!DOCTYPE svg
PUBLIC "-//W3C//DTD SVG 1.1//EN"
       "http://www.w3.org/Graphics/SVG/1.1/DTD/svg11.dtd">
<svg version="1.1" xmlns="http://www.w3.org/2000/svg" xmlns:xlink="http://www.w3.org/1999/xlink" viewBox="0 0 33.7305 51.4121">
 <g>
  <rect height="51.4121" opacity="0" width="33.7305" x="0" y="0"/>
  <path d="M0 32.334C0 34.1602 1.22461 35.3633 3.1582 35.3633L14.7812 35.3633L14.7812 45.3965C14.7812 48.6836 16.1562 51.4121 16.6934 51.4121C17.209 51.4121 18.584 48.6836 18.584 45.3965L18.584 35.3633L30.207 35.3633C32.1406 35.3633 33.3652 34.1602 33.3652 32.334C33.3652 27.8008 29.7344 23.0098 23.6973 20.8184L22.9883 10.957C26.125 9.17383 28.7031 7.1543 29.8203 5.71484C30.3789 4.98438 30.6582 4.25391 30.6582 3.60938C30.6582 2.29883 29.6484 1.33203 28.1445 1.33203L5.24219 1.33203C3.7168 1.33203 2.72852 2.29883 2.72852 3.60938C2.72852 4.25391 2.98633 4.98438 3.54492 5.71484C4.66211 7.1543 7.24023 9.17383 10.377 10.957L9.66797 20.8184C3.63086 23.0098 0 27.8008 0 32.334Z" fill="white" fill-opacity="0.85"/>
 </g>
</svg>
