<?xml version="1.0" encoding="UTF-8"?>
<!--Generator: Apple Native CoreSVG 326-->
<!DOCTYPE svg
PUBLIC "-//W3C//DTD SVG 1.1//EN"
       "http://www.w3.org/Graphics/SVG/1.1/DTD/svg11.dtd">
<svg version="1.1" xmlns="http://www.w3.org/2000/svg" xmlns:xlink="http://www.w3.org/1999/xlink" viewBox="0 0 63.1211 47.2441">
 <g>
  <rect height="47.2441" opacity="0" width="63.1211" x="0" y="0"/>
  <path d="M27.2852 26.2754C27.2852 27.1992 26.5117 27.9941 25.6094 27.9941L7.92773 27.9941L4.72656 27.8652L5.99414 29.0684L9.53906 32.377C9.88281 32.6777 10.0332 33.1289 10.0332 33.5371C10.0332 34.4395 9.41016 35.1055 8.5293 35.1055C8.07812 35.1055 7.73438 34.9336 7.41211 34.6113L0.580078 27.5215C0.150391 27.0918 0 26.7266 0 26.2754C0 25.8457 0.150391 25.4805 0.580078 25.0293L7.41211 17.9609C7.73438 17.6387 8.07812 17.4453 8.5293 17.4453C9.41016 17.4453 10.0332 18.0898 10.0332 18.9922C10.0332 19.4004 9.88281 19.873 9.53906 20.1738L5.99414 23.5039L4.70508 24.707L7.92773 24.5781L25.6094 24.5781C26.5117 24.5781 27.2852 25.3516 27.2852 26.2754ZM41.3145 47.2441C41.4648 47.2012 41.5938 47.1367 41.7441 47.0508L58.5664 37.4688C60.5645 36.3301 61.6387 35.1699 61.6387 32.0547L61.6387 15.3184C61.6387 14.6738 61.5957 14.1582 61.4668 13.6855L41.3145 25.2012ZM38.3711 47.2441L38.3711 25.2012L18.2188 13.6855C18.0898 14.1582 18.0469 14.6738 18.0469 15.3184L18.0469 32.0547C18.0469 35.1699 19.1426 36.3301 21.1191 37.4688L37.9629 47.0508C38.0918 47.1367 38.2207 47.2012 38.3711 47.2441ZM39.8535 22.623L49.0273 17.4238L28.6816 5.80078L20.7969 10.291C20.3242 10.5488 19.9375 10.8066 19.5938 11.1289ZM52.0137 15.7266L60.0918 11.1289C59.748 10.8066 59.3828 10.5488 58.8887 10.291L43.7422 1.6543C42.4316 0.902344 41.1211 0.494141 39.8535 0.494141C38.5645 0.494141 37.2539 0.902344 35.9434 1.6543L31.582 4.125Z" fill="white" fill-opacity="0.85"/>
 </g>
</svg>
