<?xml version="1.0" encoding="UTF-8"?>
<!--Generator: Apple Native CoreSVG 326-->
<!DOCTYPE svg
PUBLIC "-//W3C//DTD SVG 1.1//EN"
       "http://www.w3.org/Graphics/SVG/1.1/DTD/svg11.dtd">
<svg version="1.1" xmlns="http://www.w3.org/2000/svg" xmlns:xlink="http://www.w3.org/1999/xlink" viewBox="0 0 44.1934 43.8496">
 <g>
  <rect height="43.8496" opacity="0" width="44.1934" x="0" y="0"/>
  <path d="M21.9141 43.8281C34.0098 43.8281 43.8281 34.0098 43.8281 21.9141C43.8281 9.81836 34.0098 0 21.9141 0C9.81836 0 0 9.81836 0 21.9141C0 34.0098 9.81836 43.8281 21.9141 43.8281ZM21.9141 40.1758C11.8164 40.1758 3.65234 32.0117 3.65234 21.9141C3.65234 11.8164 11.8164 3.65234 21.9141 3.65234C32.0117 3.65234 40.1758 11.8164 40.1758 21.9141C40.1758 32.0117 32.0117 40.1758 21.9141 40.1758Z" fill="white" fill-opacity="0.85"/>
  <path d="M22.6875 34.1172C22.7734 34.0957 22.8379 34.0527 22.9023 34.0098L31.7109 29.0039C32.7207 28.4023 33.3223 27.8008 33.3223 26.1895L33.3223 17.4238C33.3223 17.123 33.3008 16.8223 33.2148 16.5859L22.6875 22.6016ZM21.1406 34.1172L21.1406 22.6016L10.6133 16.5859C10.5488 16.8223 10.5488 17.123 10.5488 17.4238L10.5488 26.1895C10.5488 27.8008 11.1074 28.4023 12.1172 29.0039L20.9258 34.0098C20.9902 34.0527 21.0547 34.0957 21.1406 34.1172ZM21.9141 21.2695L26.7051 18.541L16.0918 12.4824L11.9668 14.8457C11.709 14.9531 11.4941 15.1035 11.3438 15.2754ZM28.2734 17.6602L32.4844 15.2754C32.334 15.1035 32.1191 14.9531 31.8613 14.8457L23.9551 10.3125C23.2676 9.9043 22.5801 9.71094 21.9141 9.71094C21.2695 9.71094 20.582 9.9043 19.8945 10.3125L17.5957 11.6016Z" fill="white" fill-opacity="0.85"/>
 </g>
</svg>
