<?xml version="1.0" encoding="UTF-8"?>
<!--Generator: Apple Native CoreSVG 326-->
<!DOCTYPE svg
PUBLIC "-//W3C//DTD SVG 1.1//EN"
       "http://www.w3.org/Graphics/SVG/1.1/DTD/svg11.dtd">
<svg version="1.1" xmlns="http://www.w3.org/2000/svg" xmlns:xlink="http://www.w3.org/1999/xlink" viewBox="0 0 63.0137 47.2871">
 <g>
  <rect height="47.2871" opacity="0" width="63.0137" x="0" y="0"/>
  <path d="M43.6992 1.54688L58.9102 10.1836C60.7148 11.2148 61.5312 12.6113 61.5312 14.8457L61.5312 31.8613C61.5312 34.9336 60.5 36.0723 58.5234 37.1895L41.6152 46.7715C40.4121 47.459 39.2734 47.459 38.0703 46.7715L21.1621 37.1895C19.207 36.0723 18.1543 34.9336 18.1543 31.8613L18.1543 31.1738L21.4199 31.1738L21.4199 31.7539C21.4199 32.9355 21.8496 33.666 23.0742 34.3535L38.1562 42.9258L38.1562 25.0938L21.4199 15.5332L21.4199 21.4199L18.1543 21.4199L18.1543 14.8457C18.1543 12.6113 18.9707 11.2148 20.7969 10.1836L35.9863 1.54688C38.5859 0.0644531 41.0996 0.0644531 43.6992 1.54688ZM41.5293 25.0938L41.5293 42.9258L56.6113 34.3535C57.8359 33.666 58.2656 32.9355 58.2656 31.7539L58.2656 15.5332ZM23.2676 12.6973L39.8535 22.0859L46.4922 18.3262L29.9062 8.89453ZM37.4043 4.61914L33.3008 6.96094L49.9512 16.3711L56.418 12.6973L42.2812 4.61914C40.6055 3.65234 39.0801 3.67383 37.4043 4.61914Z" fill="white" fill-opacity="0.85"/>
  <path d="M27.2852 26.2969C27.2852 25.373 26.5117 24.5996 25.6094 24.5996L7.92773 24.5996L4.70508 24.7285L5.99414 23.5254L9.53906 20.1953C9.88281 19.8945 10.0332 19.4219 10.0332 19.0137C10.0332 18.1113 9.41016 17.4668 8.5293 17.4668C8.07812 17.4668 7.73438 17.6602 7.41211 17.9824L0.580078 25.0508C0.150391 25.502 0 25.8672 0 26.2969C0 26.748 0.150391 27.1133 0.580078 27.543L7.41211 34.6328C7.73438 34.9551 8.07812 35.127 8.5293 35.127C9.41016 35.127 10.0332 34.4609 10.0332 33.5586C10.0332 33.1504 9.88281 32.6992 9.53906 32.3984L5.99414 29.0898L4.72656 27.8867L7.92773 28.0156L25.6094 28.0156C26.5117 28.0156 27.2852 27.2207 27.2852 26.2969Z" fill="white" fill-opacity="0.85"/>
 </g>
</svg>
