<?xml version="1.0" encoding="UTF-8"?>
<!--Generator: Apple Native CoreSVG 326-->
<!DOCTYPE svg
PUBLIC "-//W3C//DTD SVG 1.1//EN"
       "http://www.w3.org/Graphics/SVG/1.1/DTD/svg11.dtd">
<svg version="1.1" xmlns="http://www.w3.org/2000/svg" xmlns:xlink="http://www.w3.org/1999/xlink" viewBox="0 0 43.7422 47.2871">
 <g>
  <rect height="47.2871" opacity="0" width="43.7422" x="0" y="0"/>
  <path d="M3.00781 37.1895L19.916 46.7715C21.1191 47.459 22.2578 47.459 23.4824 46.7715L40.3691 37.1895C42.3457 36.0723 43.377 34.9336 43.377 31.8613L43.377 14.8457C43.377 12.6113 42.5605 11.2148 40.7559 10.1836L25.5449 1.54688C22.9453 0.0644531 20.4316 0.0644531 17.832 1.54688L2.64258 10.1836C0.816406 11.2148 0 12.6113 0 14.8457L0 31.8613C0 34.9336 1.05273 36.0723 3.00781 37.1895ZM4.94141 34.3535C3.69531 33.666 3.26562 32.9355 3.26562 31.7539L3.26562 15.5332L20.002 25.0938L20.002 42.9258ZM38.457 34.3535L23.375 42.9258L23.375 25.0938L40.1113 15.5332L40.1113 31.7539C40.1113 32.9355 39.6816 33.666 38.457 34.3535ZM21.6992 22.0859L5.11328 12.6973L11.752 8.89453L28.3379 18.3262ZM31.7969 16.3711L15.1465 6.96094L19.2715 4.61914C20.9258 3.67383 22.4512 3.65234 24.127 4.61914L38.2852 12.6973Z" fill="white" fill-opacity="0.85"/>
 </g>
</svg>
