<?xml version="1.0" encoding="UTF-8"?>
<!--Generator: Apple Native CoreSVG 326-->
<!DOCTYPE svg
PUBLIC "-//W3C//DTD SVG 1.1//EN"
       "http://www.w3.org/Graphics/SVG/1.1/DTD/svg11.dtd">
<svg version="1.1" xmlns="http://www.w3.org/2000/svg" xmlns:xlink="http://www.w3.org/1999/xlink" viewBox="0 0 43.957 47.2441">
 <g>
  <rect height="47.2441" opacity="0" width="43.957" x="0" y="0"/>
  <path d="M23.2676 47.2441C23.418 47.2012 23.5469 47.1367 23.6973 47.0508L40.5195 37.4688C42.5176 36.3301 43.5918 35.1699 43.5918 32.0547L43.5918 15.3184C43.5918 14.6738 43.5488 14.1582 43.4199 13.6855L23.2676 25.2012ZM20.3242 47.2441L20.3242 25.2012L0.171875 13.6855C0.0429688 14.1582 0 14.6738 0 15.3184L0 32.0547C0 35.1699 1.0957 36.3301 3.07227 37.4688L19.916 47.0508C20.0449 47.1367 20.1738 47.2012 20.3242 47.2441ZM21.8066 22.623L30.9805 17.4238L10.6348 5.80078L2.75 10.291C2.27734 10.5488 1.89062 10.8066 1.54688 11.1289ZM33.9668 15.7266L42.0449 11.1289C41.7227 10.8066 41.3359 10.5488 40.8633 10.291L25.6953 1.6543C24.3848 0.902344 23.0742 0.494141 21.8066 0.494141C20.5176 0.494141 19.207 0.902344 17.8965 1.6543L13.5352 4.125Z" fill="white" fill-opacity="0.85"/>
 </g>
</svg>
