<?xml version="1.0" encoding="UTF-8"?>
<!--Generator: Apple Native CoreSVG 326-->
<!DOCTYPE svg
PUBLIC "-//W3C//DTD SVG 1.1//EN"
       "http://www.w3.org/Graphics/SVG/1.1/DTD/svg11.dtd">
<svg version="1.1" xmlns="http://www.w3.org/2000/svg" xmlns:xlink="http://www.w3.org/1999/xlink" viewBox="0 0 44.1934 43.8496">
 <g>
  <rect height="43.8496" opacity="0" width="44.1934" x="0" y="0"/>
  <path d="M43.8281 21.9141C43.8281 33.9883 34.0098 43.8281 21.9141 43.8281C9.83984 43.8281 0 33.9883 0 21.9141C0 9.81836 9.83984 0 21.9141 0C34.0098 0 43.8281 9.81836 43.8281 21.9141ZM22.709 22.623L22.709 34.5039C22.7949 34.4824 22.8594 34.4395 22.9238 34.3965L32.0117 29.2188C33.043 28.5957 33.666 27.9941 33.666 26.3184L33.666 17.2949C33.666 16.9727 33.6445 16.6719 33.5586 16.4141ZM10.2051 17.2949L10.2051 26.3184C10.2051 27.9941 10.7637 28.5957 11.8164 29.2188L20.8828 34.3965C20.9688 34.4395 21.0332 34.4824 21.1191 34.5039L21.1191 22.623L10.2695 16.4141C10.2051 16.6719 10.2051 16.9727 10.2051 17.2949ZM11.666 14.6094C11.3867 14.7383 11.1719 14.8887 11.0215 15.0605L21.9141 21.248L26.8555 18.4336L15.9199 12.1816ZM19.8301 9.94727L17.4668 11.2793L28.4668 17.5312L32.8066 15.0605C32.6562 14.8887 32.4199 14.7383 32.1621 14.6094L24.0195 9.94727C23.3105 9.53906 22.6016 9.32422 21.9141 9.32422C21.248 9.32422 20.5391 9.53906 19.8301 9.94727Z" fill="white" fill-opacity="0.85"/>
 </g>
</svg>
