<?xml version="1.0" encoding="UTF-8"?>
<!--Generator: Apple Native CoreSVG 326-->
<!DOCTYPE svg
PUBLIC "-//W3C//DTD SVG 1.1//EN"
       "http://www.w3.org/Graphics/SVG/1.1/DTD/svg11.dtd">
<svg version="1.1" xmlns="http://www.w3.org/2000/svg" xmlns:xlink="http://www.w3.org/1999/xlink" viewBox="0 0 64.9258 55.0215">
 <g>
  <rect height="55.0215" opacity="0" width="64.9258" x="0" y="0"/>
  <path d="M15.7363 47.1582L1.71875 47.1582C0.773438 47.1582 0 46.3633 0 45.418C0 44.4727 0.773438 43.6992 1.71875 43.6992L16.806 43.6992C16.2784 44.8937 15.9166 46.0607 15.7363 47.1582ZM28.7066 47.1582L19.0196 47.1582C19.2042 46.1 19.6169 44.9241 20.2471 43.6992L30.4917 43.6992C29.9693 44.9898 29.3731 46.1566 28.7066 47.1582ZM64.5605 45.418C64.5605 46.3633 63.7656 47.1582 62.8203 47.1582L32.4614 47.1582C33.0393 46.104 33.5487 44.9435 33.9915 43.6992L62.8203 43.6992C63.7656 43.6992 64.5605 44.4727 64.5605 45.418ZM3.07227 29.498L5.76855 32.1786L8.46484 29.498C9.02344 28.9395 9.86133 28.918 10.4199 29.498C11 30.0566 11 30.8945 10.4199 31.4531L7.73333 34.1319L10.4199 36.8027C11 37.3613 11 38.2207 10.4199 38.7793C9.86133 39.3379 9.02344 39.3379 8.46484 38.7793L5.76855 36.0909L3.07227 38.7793C2.51367 39.3164 1.67578 39.3379 1.11719 38.7793C0.537109 38.2207 0.537109 37.3828 1.11719 36.8027L3.80378 34.1319L1.11719 31.4531C0.537109 30.916 0.537109 30.0566 1.11719 29.498C1.67578 28.918 2.51367 28.918 3.07227 29.498Z" fill="white" fill-opacity="0.85"/>
  <path d="M21.5273 55.0215C30.4219 55.0215 36.2441 43.8066 36.2441 29.5625C36.2441 17.4668 30.7656 7.71289 22.1719 7.71289C16.6504 7.71289 12.375 12.418 12.375 18.4121C12.375 27.2852 19.6797 34.5039 27.2852 38.0918C27.5859 38.2207 27.8438 38.2852 28.1016 38.2852C28.9609 38.2852 29.6055 37.5977 29.6055 36.8457C29.6055 36.3301 29.3262 35.8145 28.7031 35.5137C23.7832 33.1289 15.6621 27.0703 15.6621 18.4121C15.6621 14.2227 18.498 10.9785 22.1719 10.9785C28.7676 10.9785 32.9785 19.3789 32.9785 29.5625C32.9785 41.7227 28.2305 51.7559 21.9141 51.7559C19.8516 51.7559 18.8848 50.4023 18.8848 48.4688C18.8848 42.4746 27.9727 30.7871 40.4551 30.7871C41.207 30.7871 41.6367 31.1094 41.6367 31.668C41.6367 33.5371 40.627 34.998 40.627 36.8672C40.627 38.5 41.8086 39.4883 43.3984 39.4883C47.7598 39.4883 53.002 32.0332 54.7637 32.0332C56.3535 32.0332 54.377 38.7363 59.7695 38.7363C60.6719 38.7363 61.8105 38.5 62.6914 37.9199C63.207 37.5762 63.5723 37.0605 63.5723 36.3945C63.5723 35.5781 63.0352 34.9121 62.1973 34.9121C61.4453 34.9121 60.8223 35.5352 60.0918 35.5352C57.7715 35.5352 59.9844 28.4023 55.709 28.4023C51.9492 28.4023 46.127 35.6641 44.623 35.6641C44.4512 35.6641 44.3008 35.5566 44.3008 35.2988C44.3008 34.5254 45.2461 32.7637 45.2461 31.0449C45.2461 28.8965 43.4629 27.5215 40.6914 27.5215C26.3398 27.5215 15.5332 40.9922 15.5332 49.0918C15.5332 52.5508 17.4883 55.0215 21.5273 55.0215Z" fill="white" fill-opacity="0.85"/>
 </g>
</svg>
