<?xml version="1.0" encoding="UTF-8"?>
<!--Generator: Apple Native CoreSVG 326-->
<!DOCTYPE svg
PUBLIC "-//W3C//DTD SVG 1.1//EN"
       "http://www.w3.org/Graphics/SVG/1.1/DTD/svg11.dtd">
<svg version="1.1" xmlns="http://www.w3.org/2000/svg" xmlns:xlink="http://www.w3.org/1999/xlink" viewBox="0 0 62.9277 45.8691">
 <g>
  <rect height="45.8691" opacity="0" width="62.9277" x="0" y="0"/>
  <path d="M40.2832 34.0098L40.2832 6.55273C40.2832 2.72852 38.2852 0.708984 34.4395 0.708984L5.84375 0.708984C1.99805 0.708984 0 2.72852 0 6.55273L0 34.7402C0 38.5645 1.99805 40.5625 5.84375 40.5625L7.30469 40.5625C7.26172 40.2832 7.24023 39.9824 7.24023 39.6816C7.24023 34.8906 11.1504 30.9805 15.9414 30.9805C20.7324 30.9805 24.6211 34.8906 24.6211 39.6816C24.6211 39.9824 24.5996 40.2832 24.5566 40.5625L38.2422 40.5625C38.1992 40.2617 38.1777 39.9609 38.1777 39.6602C38.1777 37.4688 38.9082 35.4707 40.2832 34.0098ZM43.2266 12.5684L43.2266 31.8828C44.2578 31.3027 45.4824 30.959 46.7715 30.959C51.5625 30.959 55.5586 34.8691 55.5586 39.6602C55.5586 39.9609 55.5371 40.2617 55.4941 40.5625L56.8047 40.5625C60.5859 40.5625 62.5625 38.543 62.5625 34.7402L62.5625 27.1562C62.5625 25.0508 62.2188 24.0625 61.0371 22.7305L53.7324 14.4805C52.4648 13.0625 51.0469 12.5684 48.9414 12.5684ZM48.791 26.2754C47.5879 26.2754 46.8359 25.5449 46.8359 24.3203L46.8359 16.543L48.7266 16.543C49.7148 16.543 50.3594 16.7148 51.1973 17.6387L57.75 24.9863C58.0938 25.373 58.3301 25.7812 58.416 26.2754ZM15.9414 45.8691C19.3789 45.8691 22.1289 43.0977 22.1289 39.6816C22.1289 36.2656 19.3574 33.4941 15.9414 33.4941C12.5254 33.4941 9.75391 36.2656 9.75391 39.6816C9.75391 43.0762 12.5254 45.8691 15.9414 45.8691ZM46.8574 45.8691C50.2949 45.8691 53.0449 43.0977 53.0449 39.6602C53.0449 36.2441 50.2734 33.4727 46.8574 33.4727C43.4414 33.4727 40.6699 36.2441 40.6699 39.6602C40.6699 43.0762 43.4414 45.8691 46.8574 45.8691Z" fill="white" fill-opacity="0.85"/>
 </g>
</svg>
