<?xml version="1.0" encoding="UTF-8"?>
<!--Generator: Apple Native CoreSVG 326-->
<!DOCTYPE svg
PUBLIC "-//W3C//DTD SVG 1.1//EN"
       "http://www.w3.org/Graphics/SVG/1.1/DTD/svg11.dtd">
<svg version="1.1" xmlns="http://www.w3.org/2000/svg" xmlns:xlink="http://www.w3.org/1999/xlink" viewBox="0 0 62.9277 47.2441">
 <g>
  <rect height="47.2441" opacity="0" width="62.9277" x="0" y="0"/>
  <path d="M5.84375 41.25L10.5488 41.25L10.5488 37.791L5.88672 37.791C4.27539 37.791 3.45898 36.9746 3.45898 35.3633L3.45898 7.30469C3.45898 5.69336 4.27539 4.85547 5.88672 4.85547L37.3184 4.85547C38.9082 4.85547 39.7676 5.69336 39.7676 7.30469L39.7676 38.8438L43.2266 36.9531L43.2266 7.24023C43.2266 3.41602 41.207 1.39648 37.3828 1.39648L5.84375 1.39648C1.99805 1.39648 0 3.41602 0 7.24023L0 35.4277C0 39.252 1.99805 41.25 5.84375 41.25ZM41.3359 16.7148L48.7266 16.7148C49.8223 16.7148 50.5957 16.9082 51.4766 17.875L58.2227 25.459C58.8027 26.1035 59.1035 27.0059 59.1035 27.7793L59.1035 35.3633C59.1035 36.9746 58.2656 37.791 56.6543 37.791L53.1953 37.791L53.1953 41.25L56.7188 41.25C60.543 41.25 62.5625 39.252 62.5625 35.4277L62.5625 27.8438C62.5625 25.7383 62.2188 24.75 61.0371 23.418L53.7324 15.168C52.4648 13.75 51.0469 13.2559 48.9414 13.2559L41.3359 13.2559ZM47.2441 28.0371L56.6113 28.0371C56.6113 27.5215 56.418 27.2422 56.0957 26.877L49.6934 19.6797C49.2207 19.1855 48.6621 18.8633 48.0605 18.8633L45.3965 18.8633L45.3965 26.2109C45.3965 27.3496 46.1055 28.0371 47.2441 28.0371ZM15.9414 47.2441C19.9805 47.2441 23.2676 43.957 23.2676 39.8965C23.2676 35.8574 19.9805 32.5703 15.9414 32.5703C11.8809 32.5703 8.57227 35.8574 8.57227 39.8965C8.57227 43.957 11.8809 47.2441 15.9414 47.2441ZM15.9414 44.3223C13.4922 44.3223 11.4941 42.3457 11.4941 39.8965C11.4941 37.4688 13.4922 35.4707 15.9414 35.4707C18.3691 35.4707 20.3457 37.4688 20.3457 39.8965C20.3457 42.3457 18.3691 44.3223 15.9414 44.3223ZM46.9004 47.2441C50.9609 47.2441 54.2266 43.957 54.2266 39.8965C54.2266 35.8574 50.9609 32.5703 46.9004 32.5703C42.8398 32.5703 39.5527 35.8574 39.5527 39.8965C39.5527 43.957 42.8398 47.2441 46.9004 47.2441ZM46.9004 44.3223C44.4727 44.3223 42.4746 42.3457 42.4746 39.8965C42.4746 37.4688 44.4727 35.4707 46.9004 35.4707C49.3066 35.4707 51.3047 37.4688 51.3047 39.8965C51.3047 42.3457 49.3496 44.3223 46.9004 44.3223ZM21.6562 41.25L41.25 41.25L41.25 37.791L21.6562 37.791Z" fill="white" fill-opacity="0.85"/>
 </g>
</svg>
