<?xml version="1.0" encoding="UTF-8"?>
<!--Generator: Apple Native CoreSVG 326-->
<!DOCTYPE svg
PUBLIC "-//W3C//DTD SVG 1.1//EN"
       "http://www.w3.org/Graphics/SVG/1.1/DTD/svg11.dtd">
<svg version="1.1" xmlns="http://www.w3.org/2000/svg" xmlns:xlink="http://www.w3.org/1999/xlink" viewBox="0 0 37.3828 37.9199">
 <g>
  <rect height="37.9199" opacity="0" width="37.3828" x="0" y="0"/>
  <path d="M14.0078 37.9199C14.9316 37.9199 15.6621 37.5117 16.1777 36.7168L36.4805 4.74805C36.8672 4.125 37.0176 3.65234 37.0176 3.1582C37.0176 1.97656 36.2441 1.20312 35.0625 1.20312C34.2031 1.20312 33.7305 1.48242 33.2148 2.29883L13.9219 33.043L3.91016 19.9375C3.37305 19.1855 2.83594 18.8848 2.0625 18.8848C0.837891 18.8848 0 19.7227 0 20.9043C0 21.3984 0.214844 21.957 0.623047 22.4727L11.7734 36.6738C12.418 37.5117 13.084 37.9199 14.0078 37.9199Z" fill="white" fill-opacity="0.85"/>
 </g>
</svg>
