<?xml version="1.0" encoding="UTF-8"?>
<!--Generator: Apple Native CoreSVG 326-->
<!DOCTYPE svg
PUBLIC "-//W3C//DTD SVG 1.1//EN"
       "http://www.w3.org/Graphics/SVG/1.1/DTD/svg11.dtd">
<svg version="1.1" xmlns="http://www.w3.org/2000/svg" xmlns:xlink="http://www.w3.org/1999/xlink" viewBox="0 0 40.584 37.3613">
 <g>
  <rect height="37.3613" opacity="0" width="40.584" x="0" y="0"/>
  <path d="M21.1621 37.3184C21.7207 37.3184 22.1934 37.1035 22.5586 36.7383L39.5742 20.1094C39.9824 19.7012 40.2188 19.207 40.2188 18.6699C40.2188 18.1113 39.9824 17.5742 39.5742 17.2305L22.5586 0.580078C22.1719 0.214844 21.7207 0 21.1621 0C20.0449 0 19.1855 0.859375 19.1855 1.97656C19.1855 2.49219 19.4219 3.00781 19.7656 3.37305L36.5664 19.8086L36.5664 17.5098L19.7656 33.9668C19.4219 34.332 19.1855 34.8262 19.1855 35.3633C19.1855 36.4805 20.0449 37.3184 21.1621 37.3184Z" fill="white" fill-opacity="0.85"/>
  <path d="M1.95508 37.3184C2.51367 37.3184 2.98633 37.1035 3.37305 36.7383L20.3887 20.1094C20.7969 19.7012 21.0117 19.207 21.0117 18.6699C21.0117 18.1113 20.7969 17.5742 20.3887 17.2305L3.35156 0.580078C2.98633 0.214844 2.51367 0 1.95508 0C0.837891 0 0 0.859375 0 1.97656C0 2.49219 0.214844 3.00781 0.558594 3.37305L17.3809 19.8086L17.3809 17.5098L0.558594 33.9668C0.214844 34.332 0 34.8262 0 35.3633C0 36.4805 0.837891 37.3184 1.95508 37.3184Z" fill="white" fill-opacity="0.85"/>
 </g>
</svg>
