<?xml version="1.0" encoding="UTF-8"?>
<!--Generator: Apple Native CoreSVG 326-->
<!DOCTYPE svg
PUBLIC "-//W3C//DTD SVG 1.1//EN"
       "http://www.w3.org/Graphics/SVG/1.1/DTD/svg11.dtd">
<svg version="1.1" xmlns="http://www.w3.org/2000/svg" xmlns:xlink="http://www.w3.org/1999/xlink" viewBox="0 0 40.584 37.3613">
 <g>
  <rect height="37.3613" opacity="0" width="40.584" x="0" y="0"/>
  <path d="M36.8457 36.7383C37.2109 37.1035 37.7051 37.3184 38.2422 37.3184C39.3594 37.3184 40.2188 36.4805 40.2188 35.3633C40.2188 34.8262 39.9824 34.332 39.6387 33.9668L22.8379 17.5098L22.8379 19.8086L39.6387 3.37305C39.9824 3.00781 40.2188 2.49219 40.2188 1.97656C40.2188 0.859375 39.3594 0 38.2422 0C37.7051 0 37.2324 0.214844 36.8457 0.580078L19.8301 17.2305C19.4219 17.5742 19.1855 18.1113 19.1855 18.6699C19.1855 19.207 19.4219 19.7012 19.8301 20.1094Z" fill="white" fill-opacity="0.85"/>
  <path d="M17.6602 36.7383C18.0254 37.1035 18.498 37.3184 19.0566 37.3184C20.1738 37.3184 21.0117 36.4805 21.0117 35.3633C21.0117 34.8262 20.7969 34.332 20.4531 33.9668L3.63086 17.5098L3.63086 19.8086L20.4531 3.37305C20.7969 3.00781 21.0117 2.49219 21.0117 1.97656C21.0117 0.859375 20.1738 0 19.0566 0C18.498 0 18.0254 0.214844 17.6602 0.580078L0.644531 17.2305C0.236328 17.5742 0 18.1113 0 18.6699C0 19.207 0.214844 19.7012 0.623047 20.1094Z" fill="white" fill-opacity="0.85"/>
 </g>
</svg>
