<?xml version="1.0" encoding="UTF-8"?>
<!--Generator: Apple Native CoreSVG 326-->
<!DOCTYPE svg
PUBLIC "-//W3C//DTD SVG 1.1//EN"
       "http://www.w3.org/Graphics/SVG/1.1/DTD/svg11.dtd">
<svg version="1.1" xmlns="http://www.w3.org/2000/svg" xmlns:xlink="http://www.w3.org/1999/xlink" viewBox="0 0 37.6836 40.2402">
 <g>
  <rect height="40.2402" opacity="0" width="37.6836" x="0" y="0"/>
  <path d="M0.580078 36.8457C0.214844 37.2324 0 37.7051 0 38.2422C0 39.3594 0.837891 40.2188 1.95508 40.2188C2.51367 40.2188 3.00781 40.0039 3.35156 39.6387L19.8086 22.8379L17.5098 22.8379L33.9668 39.6387C34.332 40.0039 34.8262 40.2188 35.3633 40.2188C36.4805 40.2188 37.3184 39.3594 37.3184 38.2422C37.3184 37.7051 37.1035 37.2324 36.7383 36.8457L20.1094 19.8301C19.7441 19.4219 19.207 19.207 18.6699 19.207C18.1113 19.207 17.6172 19.4219 17.209 19.8301Z" fill="white" fill-opacity="0.85"/>
  <path d="M0.580078 17.6387C0.214844 18.0254 0 18.498 0 19.0566C0 20.1738 0.837891 21.0117 1.95508 21.0117C2.51367 21.0117 3.00781 20.7969 3.35156 20.4531L19.8086 3.63086L17.5098 3.63086L33.9668 20.4531C34.332 20.7969 34.8262 21.0117 35.3633 21.0117C36.4805 21.0117 37.3184 20.1738 37.3184 19.0566C37.3184 18.498 37.1035 18.0254 36.7383 17.6602L20.1094 0.623047C19.7227 0.257812 19.207 0 18.6699 0C18.1113 0 17.6172 0.214844 17.209 0.623047Z" fill="white" fill-opacity="0.85"/>
 </g>
</svg>
