<?xml version="1.0" encoding="UTF-8"?>
<!--Generator: Apple Native CoreSVG 326-->
<!DOCTYPE svg
PUBLIC "-//W3C//DTD SVG 1.1//EN"
       "http://www.w3.org/Graphics/SVG/1.1/DTD/svg11.dtd">
<svg version="1.1" xmlns="http://www.w3.org/2000/svg" xmlns:xlink="http://www.w3.org/1999/xlink" viewBox="0 0 37.6836 40.2402">
 <g>
  <rect height="40.2402" opacity="0" width="37.6836" x="0" y="0"/>
  <path d="M0.580078 22.5586L17.209 39.5957C17.6172 39.9824 18.1113 40.2188 18.6699 40.2188C19.207 40.2188 19.7227 39.9609 20.1094 39.5742L36.7383 22.5586C37.1035 22.1934 37.3184 21.7207 37.3184 21.1621C37.3184 20.0449 36.4805 19.207 35.3633 19.207C34.8262 19.207 34.332 19.4219 33.9668 19.7656L17.5098 36.5664L19.8086 36.5664L3.35156 19.7656C3.00781 19.4219 2.51367 19.207 1.95508 19.207C0.837891 19.207 0 20.0449 0 21.1621C0 21.7207 0.214844 22.1934 0.580078 22.5586Z" fill="white" fill-opacity="0.85"/>
  <path d="M0.580078 3.37305L17.209 20.3887C17.6172 20.7969 18.1113 21.0117 18.6699 21.0117C19.207 21.0117 19.7441 20.7754 20.1094 20.3672L36.7383 3.35156C37.1035 2.98633 37.3184 2.51367 37.3184 1.95508C37.3184 0.837891 36.4805 0 35.3633 0C34.8262 0 34.332 0.214844 33.9668 0.558594L17.5098 17.3809L19.8086 17.3809L3.35156 0.558594C3.00781 0.214844 2.51367 0 1.95508 0C0.837891 0 0 0.837891 0 1.95508C0 2.51367 0.214844 2.98633 0.580078 3.37305Z" fill="white" fill-opacity="0.85"/>
 </g>
</svg>
