<?xml version="1.0" encoding="UTF-8"?>
<!--Generator: Apple Native CoreSVG 326-->
<!DOCTYPE svg
PUBLIC "-//W3C//DTD SVG 1.1//EN"
       "http://www.w3.org/Graphics/SVG/1.1/DTD/svg11.dtd">
<svg version="1.1" xmlns="http://www.w3.org/2000/svg" xmlns:xlink="http://www.w3.org/1999/xlink" viewBox="0 0 26.1465 37.3184">
 <g>
  <rect height="37.3184" opacity="0" width="26.1465" x="0" y="0"/>
  <path d="M26.1465 18.6484C26.1465 18.1113 25.9316 17.6172 25.5234 17.2305L8.50781 0.558594C8.12109 0.193359 7.64844 0 7.08984 0C5.99414 0 5.13477 0.837891 5.13477 1.95508C5.13477 2.49219 5.34961 2.98633 5.69336 3.35156L21.334 18.6484L5.69336 33.9453C5.34961 34.3105 5.13477 34.7832 5.13477 35.3418C5.13477 36.459 5.99414 37.2969 7.08984 37.2969C7.64844 37.2969 8.12109 37.1035 8.50781 36.7168L25.5234 20.0664C25.9316 19.6582 26.1465 19.1855 26.1465 18.6484Z" fill="white" fill-opacity="0.85"/>
 </g>
</svg>
