<?xml version="1.0" encoding="UTF-8"?>
<!--Generator: Apple Native CoreSVG 326-->
<!DOCTYPE svg
PUBLIC "-//W3C//DTD SVG 1.1//EN"
       "http://www.w3.org/Graphics/SVG/1.1/DTD/svg11.dtd">
<svg version="1.1" xmlns="http://www.w3.org/2000/svg" xmlns:xlink="http://www.w3.org/1999/xlink" viewBox="0 0 26.834 37.3184">
 <g>
  <rect height="37.3184" opacity="0" width="26.834" x="0" y="0"/>
  <path d="M0 18.6484C0 19.1855 0.193359 19.6582 0.601562 20.0664L17.6387 36.7168C18.0039 37.1035 18.4766 37.2969 19.0352 37.2969C20.1523 37.2969 21.0117 36.459 21.0117 35.3418C21.0117 34.7832 20.7754 34.3105 20.4316 33.9453L4.79102 18.6484L20.4316 3.35156C20.7754 2.98633 21.0117 2.49219 21.0117 1.95508C21.0117 0.837891 20.1523 0 19.0352 0C18.4766 0 18.0039 0.193359 17.6387 0.558594L0.601562 17.2305C0.193359 17.6172 0 18.1113 0 18.6484Z" fill="white" fill-opacity="0.85"/>
 </g>
</svg>
