<?xml version="1.0" encoding="UTF-8"?>
<!--Generator: Apple Native CoreSVG 326-->
<!DOCTYPE svg
PUBLIC "-//W3C//DTD SVG 1.1//EN"
       "http://www.w3.org/Graphics/SVG/1.1/DTD/svg11.dtd">
<svg version="1.1" xmlns="http://www.w3.org/2000/svg" xmlns:xlink="http://www.w3.org/1999/xlink" viewBox="0 0 37.6836 22.752">
 <g>
  <rect height="22.752" opacity="0" width="37.6836" x="0" y="0"/>
  <path d="M0.580078 17.6602C0.214844 18.0039 0 18.498 0 19.0566C0 20.1738 0.837891 21.0117 1.95508 21.0117C2.51367 21.0117 3.0293 20.8184 3.35156 20.4531L19.8086 3.65234L17.5098 3.65234L33.9668 20.4531C34.3105 20.8184 34.8262 21.0117 35.3633 21.0117C36.4805 21.0117 37.3184 20.1738 37.3184 19.0566C37.3184 18.498 37.1035 18.0039 36.7383 17.6602L20.1094 0.644531C19.7441 0.236328 19.207 0 18.6699 0C18.1113 0 17.5957 0.236328 17.209 0.644531Z" fill="white" fill-opacity="0.85"/>
 </g>
</svg>
