<?xml version="1.0" encoding="UTF-8"?>
<!--Generator: Apple Native CoreSVG 326-->
<!DOCTYPE svg
PUBLIC "-//W3C//DTD SVG 1.1//EN"
       "http://www.w3.org/Graphics/SVG/1.1/DTD/svg11.dtd">
<svg version="1.1" xmlns="http://www.w3.org/2000/svg" xmlns:xlink="http://www.w3.org/1999/xlink" viewBox="0 0 37.6836 22.8809">
 <g>
  <rect height="22.8809" opacity="0" width="37.6836" x="0" y="0"/>
  <path d="M18.6699 22.8809C19.207 22.8809 19.7441 22.666 20.1094 22.2578L36.7383 5.2207C37.1035 4.85547 37.3184 4.38281 37.3184 3.8457C37.3184 2.72852 36.4805 1.86914 35.3633 1.86914C34.8262 1.86914 34.332 2.08398 33.9668 2.42773L17.5098 19.25L19.8086 19.25L3.35156 2.42773C3.00781 2.08398 2.51367 1.86914 1.95508 1.86914C0.837891 1.86914 0 2.72852 0 3.8457C0 4.38281 0.214844 4.85547 0.580078 5.24219L17.209 22.2578C17.6172 22.666 18.1113 22.8809 18.6699 22.8809Z" fill="white" fill-opacity="0.85"/>
 </g>
</svg>
