<?xml version="1.0" encoding="UTF-8"?>
<!--Generator: Apple Native CoreSVG 326-->
<!DOCTYPE svg
PUBLIC "-//W3C//DTD SVG 1.1//EN"
       "http://www.w3.org/Graphics/SVG/1.1/DTD/svg11.dtd">
<svg version="1.1" xmlns="http://www.w3.org/2000/svg" xmlns:xlink="http://www.w3.org/1999/xlink" viewBox="0 0 58.6094 45.2246">
 <g>
  <rect height="45.2246" opacity="0" width="58.6094" x="0" y="0"/>
  <path d="M18.373 17.2866C17.5684 18.8833 17.123 20.6899 17.123 22.6016C17.123 29.2188 22.4941 34.6113 29.1328 34.6113C31.0449 34.6113 32.8547 34.1611 34.4551 33.3495L40.0395 38.9272C36.7478 40.1309 33.0799 40.8633 29.1328 40.8633C12.1387 40.8633 0 26.9414 0 22.6016C0 20.057 4.13212 14.2652 10.9703 9.89275ZM58.2441 22.6016C58.2441 25.0707 54.3913 30.6416 47.8917 34.9809L40.1899 27.2836C40.8033 25.8441 41.1426 24.2613 41.1426 22.6016C41.1426 15.9629 35.75 10.5918 29.1328 10.5918C27.4667 10.5918 25.8805 10.9301 24.4394 11.5426L18.949 6.05548C22.0594 4.98059 25.4842 4.33984 29.1328 4.33984C46.3203 4.33984 58.2441 18.2402 58.2441 22.6016ZM30.6136 29.5126C30.1369 29.6165 29.6412 29.6699 29.1328 29.6699C25.2227 29.6699 22.0645 26.5117 22.0645 22.6016C22.0645 22.096 22.1172 21.6031 22.2197 21.1287ZM36.2012 22.6016L36.1678 23.264L28.466 15.5668C28.685 15.5437 28.9076 15.5332 29.1328 15.5332C33.043 15.5332 36.2012 18.6914 36.2012 22.6016Z" fill="white" fill-opacity="0.85"/>
  <path d="M45.9121 41.2285C46.5566 41.8945 47.5879 41.9375 48.2539 41.2285C48.9629 40.5195 48.8984 39.5527 48.2539 38.8867L12.332 2.98633C11.6875 2.3418 10.6133 2.3418 9.96875 2.98633C9.3457 3.60938 9.3457 4.70508 9.96875 5.32812Z" fill="white" fill-opacity="0.85"/>
 </g>
</svg>
