<?xml version="1.0" encoding="UTF-8"?>
<!--Generator: Apple Native CoreSVG 326-->
<!DOCTYPE svg
PUBLIC "-//W3C//DTD SVG 1.1//EN"
       "http://www.w3.org/Graphics/SVG/1.1/DTD/svg11.dtd">
<svg version="1.1" xmlns="http://www.w3.org/2000/svg" xmlns:xlink="http://www.w3.org/1999/xlink" viewBox="0 0 58.6094 36.5449">
 <g>
  <rect height="36.5449" opacity="0" width="58.6094" x="0" y="0"/>
  <path d="M29.1328 36.5234C46.3418 36.5234 58.2441 22.6016 58.2441 18.2617C58.2441 13.9004 46.3203 0 29.1328 0C12.1387 0 0 13.9004 0 18.2617C0 22.6016 12.1387 36.5234 29.1328 36.5234ZM29.1328 30.2715C22.4941 30.2715 17.123 24.8789 17.123 18.2617C17.123 11.623 22.4941 6.25195 29.1328 6.25195C35.75 6.25195 41.1426 11.623 41.1426 18.2617C41.1426 24.8789 35.75 30.2715 29.1328 30.2715ZM29.1328 22.6445C31.5605 22.6445 33.5156 20.6895 33.5156 18.2617C33.5156 15.834 31.5605 13.8789 29.1328 13.8789C26.7051 13.8789 24.75 15.834 24.75 18.2617C24.75 20.6895 26.7051 22.6445 29.1328 22.6445Z" fill="white" fill-opacity="0.85"/>
 </g>
</svg>
