<?xml version="1.0" encoding="UTF-8"?>
<!--Generator: Apple Native CoreSVG 326-->
<!DOCTYPE svg
PUBLIC "-//W3C//DTD SVG 1.1//EN"
       "http://www.w3.org/Graphics/SVG/1.1/DTD/svg11.dtd">
<svg version="1.1" xmlns="http://www.w3.org/2000/svg" xmlns:xlink="http://www.w3.org/1999/xlink" viewBox="0 0 50.252 38.5645">
 <g>
  <rect height="38.5645" opacity="0" width="50.252" x="0" y="0"/>
  <path d="M11.5156 38.5645C17.9609 38.5645 23.0957 30.7441 23.0957 19.2715C23.0957 7.79883 17.9609 0 11.5156 0C5.47852 0 0.580078 6.89648 0 17.252C1.00977 15.2754 2.94336 14.0938 5.47852 14.0938C9.2168 14.0938 11.6875 16.7148 11.6875 20.582C11.6875 24.5137 9.2168 27.1133 5.47852 27.1133C3.20117 27.1133 1.39648 26.168 0.322266 24.5352C1.63281 33.0645 6.12305 38.5645 11.5156 38.5645ZM3.7168 19.8086C4.49023 19.959 5.19922 19.25 5.41406 18.2832C5.60742 17.3164 5.13477 16.3926 4.31836 16.2422C3.56641 16.0918 2.77148 16.8008 2.59961 17.7676C2.42773 18.7559 2.94336 19.6797 3.7168 19.8086ZM38.3066 38.5645C44.752 38.5645 49.8867 30.7441 49.8867 19.2715C49.8867 7.79883 44.752 0 38.3066 0C32.2695 0 27.3711 6.89648 26.791 17.252C27.8008 15.2754 29.7344 14.0938 32.248 14.0938C36.0078 14.0938 38.4785 16.7148 38.4785 20.582C38.4785 24.5137 36.0078 27.1133 32.248 27.1133C29.9922 27.1133 28.1875 26.168 27.1133 24.5352C28.4238 33.0645 32.9141 38.5645 38.3066 38.5645ZM30.5078 19.8086C31.2598 19.959 32.0117 19.25 32.2051 18.2832C32.377 17.3164 31.9043 16.3711 31.1094 16.2422C30.3574 16.0918 29.5625 16.8008 29.3906 17.7676C29.2188 18.7559 29.7129 19.6582 30.5078 19.8086Z" fill="white" fill-opacity="0.85"/>
 </g>
</svg>
