<?xml version="1.0" encoding="UTF-8"?>
<!--Generator: Apple Native CoreSVG 326-->
<!DOCTYPE svg
PUBLIC "-//W3C//DTD SVG 1.1//EN"
       "http://www.w3.org/Graphics/SVG/1.1/DTD/svg11.dtd">
<svg version="1.1" xmlns="http://www.w3.org/2000/svg" xmlns:xlink="http://www.w3.org/1999/xlink" viewBox="0 0 42.3457 42.3887">
 <g>
  <rect height="42.3887" opacity="0" width="42.3457" x="0" y="0"/>
  <path d="M0 17.1445C0 26.5977 7.69141 34.2891 17.1445 34.2891C20.8828 34.2891 24.2988 33.0859 27.1133 31.0664L37.6836 41.6582C38.1777 42.1523 38.8223 42.3887 39.5098 42.3887C40.9707 42.3887 41.9805 41.293 41.9805 39.8535C41.9805 39.166 41.7227 38.543 41.2715 38.0918L30.7656 27.5215C32.9785 24.6426 34.2891 21.0547 34.2891 17.1445C34.2891 7.69141 26.5977 0 17.1445 0C7.69141 0 0 7.69141 0 17.1445ZM3.67383 17.1445C3.67383 9.71094 9.71094 3.67383 17.1445 3.67383C24.5781 3.67383 30.6152 9.71094 30.6152 17.1445C30.6152 24.5781 24.5781 30.6152 17.1445 30.6152C9.71094 30.6152 3.67383 24.5781 3.67383 17.1445Z" fill="white" fill-opacity="0.85"/>
 </g>
</svg>
