<?xml version="1.0" encoding="UTF-8"?>
<!--Generator: Apple Native CoreSVG 326-->
<!DOCTYPE svg
PUBLIC "-//W3C//DTD SVG 1.1//EN"
       "http://www.w3.org/Graphics/SVG/1.1/DTD/svg11.dtd">
<svg version="1.1" xmlns="http://www.w3.org/2000/svg" xmlns:xlink="http://www.w3.org/1999/xlink" viewBox="0 0 34.4341 34.0904">
 <g>
  <rect height="34.0904" opacity="0" width="34.4341" x="0" y="0"/>
  <path d="M0.555937 33.5345C1.30789 34.2649 2.55398 34.2649 3.28445 33.5345L17.0345 19.7845L30.7845 33.5345C31.5149 34.2649 32.7825 34.2864 33.513 33.5345C34.2434 32.7825 34.2434 31.5579 33.513 30.8274L19.763 17.0559L33.513 3.30594C34.2434 2.57547 34.2649 1.32937 33.513 0.598906C32.761-0.153047 31.5149-0.153047 30.7845 0.598906L17.0345 14.3489L3.28445 0.598906C2.55398-0.153047 1.28641-0.174531 0.555937 0.598906C-0.174531 1.35086-0.174531 2.57547 0.555937 3.30594L14.3059 17.0559L0.555937 30.8274C-0.174531 31.5579-0.196016 32.804 0.555937 33.5345Z" fill="white" fill-opacity="0.85"/>
 </g>
</svg>
